<svg xmlns="http://www.w3.org/2000/svg" viewBox="0 0 100 100"><path d="M56.25 12.99V6.25h3.12c3.45 0 6.25-2.8 6.25-6.25L40.63.19a.605.605 0 010-.19h-6.25c0 3.45 2.8 6.25 6.25 6.25h3.12V13C19.85 16.44 3.27 38.61 6.72 62.52S32.35 103 56.25 99.55c23.9-3.45 40.48-25.62 37.03-49.52-2.77-19.19-17.85-34.27-37.03-37.04zM50 93.7c-20.7 0-37.48-16.78-37.48-37.48S29.3 18.74 50 18.74s37.48 16.78 37.48 37.48S70.7 93.7 50 93.7zm-6.25-56.22h-9.37c-3.45 0-6.25 2.8-6.25 6.25v9.37h6.25v-9.37h6.25v12.49h-6.25c-3.45 0-6.25 2.8-6.25 6.25v6.25c0 3.45 2.8 6.25 6.25 6.25h12.49v-6.25H34.38v-6.25h6.25c3.45 0 6.25-2.8 6.25-6.25V40.6c0-1.72-1.4-3.12-3.13-3.12zm24.99 0h-6.25V53.1h-6.25V37.48H50v18.74c0 1.72 1.4 3.12 3.12 3.12h9.37v15.62h6.25V59.34h6.25v-6.25h-6.25V37.48z"/></svg>