<svg xmlns="http://www.w3.org/2000/svg" viewBox="0 0 100 100"><path d="M83.1 66.9c.1-.1-13.2-8.3-13.2-8.3l3.6-15.2L58.3 47l-6.1-9.8 25-6.2V0H22.9v30.9l25 6.2-6.1 9.8-15.2-3.6 3.6 15.2-13.3 8.2L30.1 75l-3.6 15.2 15.2-3.6L50 100l8.2-13.3 15.2 3.6-3.6-15.2 13.3-8.2zM64.7 4.2H73v23.4l-8.3 2.1V4.2zM35.3 29.7L27 27.6V4.2h8.3v25.5zm4.3 1V4.2h20.9v26.5L50 33.3l-10.4-2.6zM56.3 82L50 92.1 43.7 82l-11.6 2.7 2.7-11.6-10.1-6.3 10.1-6.3L32.1 49l11.6 2.7L50 41.5l6.3 10.1 11.6-2.7-2.7 11.6 10.1 6.3-10.1 6.3c-.1 0 2.7 11.6 2.7 11.6L56.3 82zM50 54.3c-6.9 0-12.5 5.6-12.5 12.5S43.1 79.3 50 79.3s12.5-5.6 12.5-12.5S56.9 54.3 50 54.3zm0 20.9c-4.6 0-8.3-3.8-8.3-8.3s3.8-8.3 8.3-8.3 8.3 3.8 8.3 8.3-3.7 8.3-8.3 8.3z"/></svg>