<svg xmlns="http://www.w3.org/2000/svg" viewBox="0 0 100 100"><path d="M93.91 56.09l-17.59-10.9 4.73-20.15-20.15 4.74-4.32-6.98 15.92-6.84V0H28.31v15.96l15.28 6.56-4.49 7.25-20.15-4.73 4.73 20.15-17.59 10.9 17.59 10.9-4.73 20.15 20.15-4.73L50 100l10.9-17.59 20.15 4.73-4.73-20.15 17.59-10.9zM61.45 5.52h5.52v6.13l-5.52 2.76V5.52zm-16.57 0h11.05v10.27l-5.52.69-5.52-.69V5.52zm-5.52 8.89l-5.52-2.76V5.52h5.52v8.89zM58.3 76.12L50 89.51l-8.3-13.39-15.33 3.6 3.6-15.33-13.39-8.3 13.39-8.3-3.6-15.33 15.33 3.6 7.34-11.85h1.92l7.34 11.84 15.33-3.6-3.6 15.33 13.39 8.3-13.39 8.3 3.6 15.33-15.33-3.59zM50 39.52c-9.14 0-16.57 7.43-16.57 16.57S40.86 72.66 50 72.66s16.57-7.43 16.57-16.57S59.14 39.52 50 39.52zm0 27.62c-6.09 0-11.05-4.95-11.05-11.05S43.91 45.05 50 45.05 61.05 50 61.05 56.09 56.09 67.14 50 67.14z"/></svg>