<svg xmlns="http://www.w3.org/2000/svg" viewBox="0 0 100 100"><path d="M90.63 100H9.38C4.21 100 0 95.79 0 90.63V9.38C0 4.21 4.21 0 9.38 0h81.25C95.79 0 100 4.21 100 9.38v81.25c0 5.16-4.21 9.37-9.37 9.37zM9.38 6.25c-1.72 0-3.13 1.4-3.13 3.13v81.25c0 1.72 1.4 3.13 3.13 3.13h81.25c1.72 0 3.13-1.4 3.13-3.13V9.38c0-1.72-1.4-3.13-3.13-3.13H9.38zM37.5 65.63c-.57 0-1.14-.16-1.64-.47a3.12 3.12 0 01-1.48-2.66v-25c0-1.08.56-2.09 1.48-2.66.92-.57 2.07-.62 3.04-.14l25 12.5c1.06.53 1.73 1.61 1.73 2.8s-.67 2.27-1.73 2.8l-25 12.5c-.44.22-.92.33-1.4.33zm3.13-23.07v14.89L55.51 50l-14.88-7.44z"/></svg>