<svg xmlns="http://www.w3.org/2000/svg" viewBox="0 0 100 100"><path d="M96.43 0H17.86c-1.97 0-3.57 1.6-3.57 3.57v10.71H3.57A3.58 3.58 0 000 17.86v78.57C0 98.4 1.6 100 3.57 100h78.57c1.97 0 3.57-1.6 3.57-3.57V85.71h10.71c1.97 0 3.57-1.6 3.57-3.57V3.57A3.557 3.557 0 0096.43 0zM78.57 92.86H7.14V21.43h7.14v60.71c0 1.97 1.6 3.57 3.57 3.57h60.71v7.15zm14.29-14.29H21.43V7.14h71.43v71.43zM42.32 59.95c.57.36 1.23.53 1.88.53.55 0 1.09-.13 1.6-.38l28.57-14.29a3.57 3.57 0 000-6.38L45.8 25.15a3.593 3.593 0 00-3.48.16c-1.05.65-1.69 1.8-1.69 3.04v28.57c0 1.23.64 2.38 1.69 3.03zm5.45-25.83l17.01 8.51-17.01 8.51V34.12z"/></svg>