<?xml version="1.0" encoding="utf-8"?>
<!-- Generator: Adobe Illustrator 24.1.3, SVG Export Plug-In . SVG Version: 6.00 Build 0)  -->
<svg version="1.1" id="Layer_1" xmlns="http://www.w3.org/2000/svg" xmlns:xlink="http://www.w3.org/1999/xlink" x="0px" y="0px"
	 viewBox="0 0 250 50" style="enable-background:new 0 0 250 50;" xml:space="preserve">
<path class="st0" d="M39.2,37.6c0.6,0.7,0.9,1,1.5,1.7c-4.5,0-6.7,0-11.2,0c-3.3-4-4.8-6-7.8-9.9c-1.4,4-2.2,6-3.6,9.9
	c-4,0-6,0-10,0c3.9-9.9,7.8-19.7,11.6-29.6c3.6,0,5.4,0,9,0c-1.4,4-2.2,6-3.6,9.9c4.7-3.3,9.3-6.6,13.9-9.9c4,0,6.1,0,10.1,0
	c-6.6,5-13.4,9.8-20.2,14.6c1.8,2.5,2.7,3.8,4.7,6.3c0.9,1.2,1.8,2.4,2.8,3.5C37.3,35.3,38.2,36.4,39.2,37.6z M44.4,26.8
	c8,0,16,0,23.9,0c0.5-2.6,0.8-3.8,1.3-6.4c-7.8,0-15.6,0-23.4,0C45.5,23,45.1,24.2,44.4,26.8z M101.6,14.8c0.5,1.1,0.7,2.2,0.6,3.4
	c0,0.5-0.1,0.7-0.1,1.2c-0.1,1.2-0.6,2.4-1.3,3.4c-0.7,1-1.7,1.9-2.8,2.7c-1.1,0.7-2.5,1.3-3.9,1.7c-1.5,0.4-3,0.6-4.6,0.6
	c-3.6,0-5.5,0-9.1,0c-0.8,4.6-1.1,6.9-1.9,11.4c-3.8,0-5.6,0-9.4,0c1.9-9.9,3.9-19.7,5.8-29.6c5.7,0,11.4,0,17.1,0
	c1.5,0,2.9,0.2,4.2,0.6c1.3,0.4,2.4,1,3.3,1.7C100.4,12.8,101.1,13.7,101.6,14.8z M81.5,21.1c3.1,0,4.7,0,7.8,0
	c1.8,0,2.7-0.4,3.1-0.7c0.6-0.4,0.8-0.9,0.9-1.6c0.1-0.7-0.1-1.2-0.6-1.6c-0.5-0.5-1.5-0.7-2.8-0.7c-3.1,0-4.6,0-7.6,0
	C81.9,18.4,81.8,19.3,81.5,21.1z M132.2,15.1c0.7,1.1,1,2.4,1.1,3.7c0,4.6,0.1,6.9,0.1,11.6c0,1.3-0.3,2.5-1.1,3.6
	c-0.7,1.1-1.6,2-2.8,2.8c-1.2,0.8-2.6,1.4-4.1,1.9c-1.6,0.4-3.2,0.7-5,0.7c-1.9,0-2.8,0-4.7,0c-1.8,0-3.4-0.2-4.9-0.7
	c-1.5-0.4-2.9-1.1-4-1.9c-1.1-0.8-2-1.8-2.6-2.8c-0.6-1.1-0.9-2.4-0.8-3.6c0.4-4.6,0.6-6.9,1-11.6c0.1-1.3,0.6-2.5,1.3-3.7
	c0.7-1.1,1.7-2.1,2.9-2.9c1.1-0.8,2.4-1.4,3.9-1.9c1.4-0.4,3-0.7,4.6-0.7c1.7,0,2.6,0,4.3,0c1.6,0,3.1,0.2,4.5,0.7
	c1.4,0.4,2.7,1.1,3.7,1.9C130.7,13,131.6,14,132.2,15.1z M112.6,30c0,0.7,0.2,1.2,0.8,1.7c0.6,0.5,1.5,0.8,2.6,0.8
	c1.8,0,2.7,0,4.5,0c1.1,0,2-0.3,2.7-0.8c0.6-0.5,0.9-1,0.9-1.7c0.1-4.4,0.1-6.6,0.2-11c0-0.7-0.2-1.2-0.8-1.7
	c-0.6-0.5-1.4-0.8-2.5-0.8c-1.7,0-2.6,0-4.3,0c-1.1,0-1.9,0.3-2.6,0.8c-0.6,0.5-0.9,1-0.9,1.7C113,23.4,112.9,25.6,112.6,30z
	 M163.6,14.8c0.8,1.1,1.2,2.2,1.4,3.4c0.1,0.5,0.1,0.7,0.1,1.2c0.1,1.2,0,2.4-0.6,3.4c-0.5,1-1.3,1.9-2.3,2.7
	c-1,0.7-2.2,1.3-3.6,1.7c-1.4,0.4-2.9,0.6-4.5,0.6c-3.6,0-5.5,0-9.1,0c0.2,4.6,0.3,6.9,0.6,11.4c-3.8,0-5.6,0-9.4,0
	c-0.2-9.9-0.4-19.7-0.6-29.6c5.7,0,11.4,0,17.1,0c1.5,0,3,0.2,4.3,0.6c1.4,0.4,2.6,1,3.7,1.7C161.9,12.8,162.9,13.7,163.6,14.8z
	 M144.8,21.1c3.1,0,4.7,0,7.8,0c1.8,0,2.6-0.4,3-0.7c0.5-0.4,0.7-0.9,0.6-1.6c-0.1-0.7-0.3-1.2-0.9-1.6c-0.6-0.5-1.6-0.7-3-0.7
	c-3.1,0-4.6,0-7.6,0C144.7,18.4,144.7,19.3,144.8,21.1z M201.2,10.4c-0.2,3.3-0.4,6.6-0.6,10c-0.2,2.5-0.4,5.1-0.6,7.6
	c-3.3-6-6.6-12.1-9.7-18.2c-3.8,0-5.7,0-9.5,0c1.8,9.9,3.5,19.7,5.3,29.6c3.3,0,4.9,0,8.1,0c-1.1-5.3-1.6-8-2.7-13.4
	c2.3,4.5,4.6,9,7,13.4c3.3,0,4.9,0,8.2,0c0-0.3,0-0.4,0-0.7c0.2-2.9,0.4-5.9,0.7-8.9c0.1-1.3,0.2-2.6,0.3-3.9
	c1.2,4.5,2.3,9,3.5,13.6c3.2,0,4.9,0,8.1,0c-2.8-9.9-5.6-19.7-8.4-29.6c-3.8,0-5.7,0-9.5,0C201.2,10,201.2,10.2,201.2,10.4z
	 M232.3,9.7c0,0.3,0,0.4,0,0.7c0.1,3.1,0.2,6.1,0.2,9.1c0,2.2,0,4.5,0,6.8c-3.9-5.5-7.7-11-11.4-16.6c-3.5,0-5.3,0-8.8,0
	c6.5,10,13.1,19.9,20,29.6c3.8,0,5.7,0,9.4,0c0.1-9.9-0.1-19.7-0.7-29.6C237.5,9.7,235.8,9.7,232.3,9.7z"/>
</svg>
